<?xml version="1.0" encoding="utf-8"?>
<svg id="master-artboard" viewBox="0 0 96.51793670654297 63.54160690307617" version="1.1" xmlns="http://www.w3.org/2000/svg" x="0px" y="0px" style="enable-background:new 0 0 1400 980;" width="96.51793670654297px" height="63.54160690307617px"><rect id="ee-background" x="0" y="0" width="96.51793670654297" height="63.54160690307617" style="fill: white; fill-opacity: 0; pointer-events: none;"/><defs><path id="text-path-0" d="M 527.2335205078125 664.030029296875 A 100 -61 0 0 0 852.7933349609375 664.030029296875 A 100 -61 0 0 0 527.2335205078125 664.030029296875 Z" style="fill: none; stroke: red; stroke-width: 2;"/><style id="ee-google-fonts">@import url(https://fonts.googleapis.com/css?family=Cinzel+Decorative:700,900,400);</style><path id="text-path-1" d="M 15.066729545593262 53.068992614746094 A 100 -100 0 0 0 66.69896697998047 53.068992614746094 A 100 -100 0 0 0 15.066729545593262 53.068992614746094 Z" style="fill: none; stroke: red; stroke-width: 2;"/></defs>

































































































<g transform="matrix(0.16667181253433228, 0, 0, 0.16667181253433228, -45.230552388538285, -30.06711845918214)"><g transform="matrix(1.8552718162536619, 0, 0, 1.8552718162536619, -1708.7017822265623, -619.5245361328125)"><g transform="matrix(1, 0, 0, 1, 0, 0)"><path d="M 1063.5999755859375 461 L 1091.5 489.5 L 1066.300048828125 515.2000122070312 L 1136.4000244140625 515.2000122070312 L 1136.4000244140625 461 Z" class="st16" style="fill: rgb(252, 174, 38);" transform="matrix(1, 0, 0, 1, 1.8189894035458565e-12, 4.547473508864641e-13)"/><path d="M 1136.4000244140625 461 L 1075.300048828125 539.9000244140625 L 1136.4000244140625 515.2000122070312 Z" class="st17" style="fill: rgb(203, 122, 31);" transform="matrix(1, 0, 0, 1, 1.8189894035458565e-12, 4.547473508864641e-13)"/><path d="M 1357.5999755859375 566.0999755859375 L 1286.4000244140625 566.0999755859375 L 1286.4000244140625 619.2000122070312 L 1361.4000244140625 619.2000122070312 L 1332.4000244140625 592.7000122070312 Z" class="st16" style="fill: rgb(252, 174, 38);" transform="matrix(1, 0, 0, 1, 1.8189894035458565e-12, 4.547473508864641e-13)"/><path d="M 1346.5999755859375 539.9000244140625 L 1286.4000244140625 619.2000122070312 L 1286.4000244140625 566.0999755859375 Z" class="st17" style="fill: rgb(203, 122, 31);" transform="matrix(1, 0, 0, 1, 1.8189894035458565e-12, 4.547473508864641e-13)"/><path d="M 1211 631.9000244140625 L 1075.300048828125 539.9000244140625 L 1211 448 L 1346.5999755859375 539.9000244140625 Z" class="st18" style="fill: rgb(255, 203, 31);" transform="matrix(1, 0, 0, 1, 1.8189894035458565e-12, 4.547473508864641e-13)"/></g></g></g><path d="M 40.86660385131836 27.458459854125977 L 49.25889205932617 28.354625701904297 L 49.21429443359375 28.77225112915039 L 48.83644485473633 28.731903076171875 C 48.14039993286133 28.657577514648438 47.43461227416992 28.800106048583984 46.71907043457031 29.159496307373047 C 46.010162353515625 29.519590377807617 45.41413879394531 30.109642028808594 44.931007385253906 30.929645538330078 L 32.46428298950195 52.36710739135742 C 31.189485549926758 54.51053237915039 30.5191707611084 55.8904914855957 30.453338623046875 56.50698471069336 L 30.07548713684082 56.466636657714844 L 21.20058250427246 28.445886611938477 C 20.90503692626953 27.50920867919922 20.442190170288086 26.78932762145996 19.81204605102539 26.28624153137207 C 19.175273895263672 25.782445907592773 18.508865356445312 25.49338722229004 17.812822341918945 25.41905975341797 L 17.47474479675293 25.382957458496094 L 17.51934051513672 24.96533203125 L 26.915918350219727 25.96874237060547 L 26.871322631835938 26.386367797851562 L 26.493471145629883 26.346017837524414 C 25.910120010375977 26.28372573852539 25.452434539794922 26.42593002319336 25.12040901184082 26.77263832092285 C 24.789094924926758 27.112712860107422 24.60609245300293 27.445161819458008 24.571407318115234 27.769981384277344 C 24.537429809570312 28.088171005249023 24.57234764099121 28.420425415039062 24.676162719726562 28.766740798950195 L 31.069486618041992 51.5845832824707 L 42.50480270385742 30.670564651489258 C 42.652889251708984 30.35114860534668 42.743919372558594 30.032344818115234 42.777896881103516 29.714153289794922 C 42.812583923339844 29.389333724975586 42.70391082763672 29.025739669799805 42.451873779296875 28.623371124267578 C 42.2005500793457 28.214370727539062 41.78321075439453 27.978727340698242 41.199859619140625 27.916433334350586 L 40.82200622558594 27.87608528137207 L 40.86660385131836 27.458459854125977 ZM 61.83146667480469 32.9880256652832 C 62.00340270996094 34.20258331298828 61.916595458984375 35.37297439575195 61.571041107177734 36.49919128417969 C 60.931983947753906 38.596134185791016 59.51904296875 40.19664764404297 57.33220672607422 41.30073165893555 C 56.5661506652832 41.69197082519531 55.89268493652344 41.92870330810547 55.31180953979492 42.01093292236328 C 53.588985443115234 42.25482177734375 52.0584716796875 42.144927978515625 50.720272064208984 41.68125534057617 L 50.661399841308594 41.26539993286133 C 52.75047302246094 41.4207878112793 54.59050750732422 40.93474578857422 56.1815185546875 39.80727767944336 C 57.59605026245117 38.81251907348633 58.45533752441406 37.391380310058594 58.75938034057617 35.543861389160156 C 58.845909118652344 34.966026306152344 58.85366439819336 34.4262809753418 58.78264617919922 33.92461395263672 C 58.711631774902344 33.42294692993164 58.66864776611328 33.11931228637695 58.65369415283203 33.01369857788086 C 58.32616424560547 31.080520629882812 57.59547424316406 29.605039596557617 56.46162033081055 28.587251663208008 C 55.328704833984375 27.576066970825195 53.887630462646484 27.194286346435547 52.138404846191406 27.441911697387695 L 47.35608673095703 28.118911743164062 L 50.87003707885742 52.94142150878906 C 51.005828857421875 53.662845611572266 51.363834381103516 54.2417106628418 51.944053649902344 54.67802429199219 C 52.53180694580078 55.1200065612793 53.185428619384766 55.290069580078125 53.90492248535156 55.18821716308594 L 54.449493408203125 55.11112594604492 L 54.50836181640625 55.5269775390625 L 45.3991813659668 56.81650161743164 L 45.34031295776367 56.40065002441406 L 45.884883880615234 56.32355880737305 C 46.60437774658203 56.221702575683594 47.185115814208984 55.87689971923828 47.62709426879883 55.289146423339844 C 48.06340789794922 54.70893096923828 48.24337387084961 54.05390548706055 48.166988372802734 53.324073791503906 L 44.87730026245117 30.08576774597168 C 44.699974060058594 29.403892517089844 44.32777404785156 28.867431640625 43.76070022583008 28.476388931274414 C 43.2011604309082 28.091012954711914 42.57484436035156 27.947383880615234 41.88175582885742 28.045499801635742 L 41.37678909301758 28.116985321044922 L 41.27831268310547 27.706737518310547 L 52.13011932373047 26.170522689819336 C 54.790260314941406 25.793943405151367 56.9836540222168 26.21061897277832 58.710289001464844 27.420549392700195 C 60.43785858154297 28.6370792388916 61.47825241088867 30.49290657043457 61.83146667480469 32.9880256652832 Z" transform="matrix(1, 0, 0, 1, 3.350853681564331, -5.026280403137207)" style="fill: rgb(186, 28, 36); white-space: pre; color: rgb(51, 51, 51); fill-opacity: 1;"/></svg>